<svg xmlns="http://www.w3.org/2000/svg" width="16" height="16"><defs><clipPath id="a"><path d="M0 0h16v16H0z"/></clipPath></defs><g fill="none" clip-path="url(#a)"><path d="M5.171 14H1.5A1.5 1.5 0 010 12.5 1.5 1.5 0 011.5 11H2V8a6 6 0 014.027-5.667A2.016 2.016 0 016 2a2 2 0 012-2 2 2 0 012 2 2.022 2.022 0 01-.028.332A6 6 0 0114 8v3h.5a1.5 1.5 0 011.5 1.5 1.5 1.5 0 01-1.5 1.5h-3.671A3.006 3.006 0 018 16a3.005 3.005 0 01-2.829-2z"/><path d="M8 15c.845 0 1.603-.536 1.886-1.334l.236-.666H14.5a.5.5 0 000-1H13V8a5.005 5.005 0 00-3.356-4.723L8.848 3l.138-.831A1.002 1.002 0 008 1a1.001 1.001 0 00-.987 1.168L7.152 3l-.797.277A5.003 5.003 0 003 8v4H1.5a.5.5 0 000 1h4.378l.236.666A2.005 2.005 0 008 15.001m0 1a3.005 3.005 0 01-2.829-2H1.5a1.5 1.5 0 010-3H2V8a6 6 0 014.027-5.668 2 2 0 113.946 0A6.002 6.002 0 0114 8v3h.5a1.5 1.5 0 010 3H10.83a3.006 3.006 0 01-2.83 2z" fill="#221c35"/></g></svg>