<svg xmlns="http://www.w3.org/2000/svg" width="16" height="16"><defs><clipPath id="a"><path d="M0 0h16v16H0z"/></clipPath></defs><g clip-path="url(#a)" fill="#221c35"><path d="M4.917 10.105h.621a.646.646 0 00.738-.723.625.625 0 00-.177-.458.667.667 0 00-.5-.178.714.714 0 00-.45.154.465.465 0 00-.193.379H3.64a1.348 1.348 0 01.25-.8 1.651 1.651 0 01.693-.549 2.371 2.371 0 01.975-.2 2.329 2.329 0 011.492.434 1.441 1.441 0 01.543 1.191 1.2 1.2 0 01-.225.693 1.6 1.6 0 01-.654.529 1.529 1.529 0 01.711.5 1.312 1.312 0 01.258.823 1.468 1.468 0 01-.584 1.221 2.432 2.432 0 01-1.541.457 2.522 2.522 0 01-1.038-.213 1.625 1.625 0 01-.721-.59 1.533 1.533 0 01-.246-.857h1.324a.593.593 0 00.211.453.745.745 0 00.52.191.78.78 0 00.555-.193.646.646 0 00.207-.494.756.756 0 00-.215-.609.9.9 0 00-.594-.18H4.92zm6.348 3.395H9.944V9.3l-1.3.379v-1l2.5-.863h.121z"/><path d="M16 15.999H0v-14h2v2h4v-2h4v2h4v-2h2v14zm-15-10v9h14v-9z"/><path d="M2.999 0h2v3h-2zM10.999 0h2v3h-2z"/></g></svg>