<svg xmlns="http://www.w3.org/2000/svg" width="16" height="16"><defs><clipPath id="a"><path d="M0 0h16v16H0z"/></clipPath></defs><g clip-path="url(#a)" fill="none"><path d="M0 0h16v12H8l-2.5 4L3 12H0z"/><path d="M1 1v10H3.554l.294.47L5.5 14.113l1.652-2.643.294-.47H15V1H1M0 0h16v12H8l-2.5 4L3 12H0V0z" fill="#221c35"/><g transform="translate(3 3)" stroke="#221c35"><path stroke="none" d="M0 0h10v1H0z"/><rect x=".5" y=".5" width="9"/></g><g transform="translate(3 5)" stroke="#221c35"><path stroke="none" d="M0 0h8v1H0z"/><rect x=".5" y=".5" width="7"/></g><g transform="translate(3 7)" stroke="#221c35"><path stroke="none" d="M0 0h6v1H0z"/><rect x=".5" y=".5" width="5"/></g></g></svg>