<svg xmlns="http://www.w3.org/2000/svg" width="16" height="16"><defs><clipPath id="a"><path d="M0 0h16v16H0z"/></clipPath></defs><g clip-path="url(#a)"><g fill="#fff"><path d="M4 16H3V9h1v7zM4 6H3V0h1v6z"/><path d="M4 16H3V9h1v6.999zM4 6H3V0h1v6z" fill="#221c35"/></g><g fill="#fff"><path d="M9 16H8v-2h1v2zm0-5H8V0h1v11z"/><path d="M9 16H8v-2h1V16zm0-5H8V0h1v11z" fill="#221c35"/></g><g fill="#fff"><path d="M14 16h-1V5h1v11zm0-14h-1V0h1v2z"/><path d="M14 16h-1V5h1V16zm0-14h-1V0h1v2z" fill="#221c35"/></g><g fill="none" stroke="#221c35"><path stroke="none" d="M7 11h3v3H7z"/><path d="M7.5 11.5h2v2h-2z"/></g><g fill="none" stroke="#221c35"><path stroke="none" d="M12 2h3v3h-3z"/><path d="M12.5 2.5h2v2h-2z"/></g><g fill="none" stroke="#221c35"><path stroke="none" d="M2 6h3v3H2z"/><path d="M2.5 6.5h2v2h-2z"/></g></g></svg>