<svg xmlns="http://www.w3.org/2000/svg" width="16" height="16"><defs><clipPath id="a"><path d="M0 0h16v16H0z"/></clipPath></defs><g clip-path="url(#a)"><path d="M16 4.578h-.908a9.7 9.7 0 00-1.155-2.2q-.8-1.172-1.469-1.262c-.247-.031-.554-.056-.917-.079s-.677-.035-.94-.035h-.546v12.55a1.591 1.591 0 00.152.715 1.068 1.068 0 00.593.491 5.311 5.311 0 00.832.207c.376.072.7.124.959.154v.88h-9.2v-.88c.225-.021.542-.056.948-.1a3.527 3.527 0 00.832-.15 1.077 1.077 0 00.605-.485 1.609 1.609 0 00.152-.723V1.003h-.546q-.395 0-.94.035c-.365.023-.67.048-.918.079q-.672.09-1.469 1.262a9.751 9.751 0 00-1.155 2.2H.003V0h16z" fill="#221c35"/></g></svg>