<svg xmlns="http://www.w3.org/2000/svg" width="16" height="16"><defs><clipPath id="a"><path d="M0 0h16v16H0z"/></clipPath></defs><g fill="none" clip-path="url(#a)"><path d="M12.746 15.375l-2.883-4.113a5.5 5.5 0 11.82-.574l2.882 4.113z"/><path d="M9.723 10.189l.314-.265a4.485 4.485 0 001.553-2.846 4.487 4.487 0 00-.776-3.172 4.506 4.506 0 00-6.268-1.103 4.506 4.506 0 00-1.103 6.269 4.487 4.487 0 002.718 1.812 4.485 4.485 0 003.204-.49l.358-.205m3.842 4.612l-.819.574-2.882-4.113a5.501 5.501 0 11.818-.574l2.883 4.113z" fill="#221c35"/></g></svg>