<svg xmlns="http://www.w3.org/2000/svg" width="16" height="16"><defs><clipPath id="a"><path d="M0 0h16v16H0z"/></clipPath></defs><g fill="none" clip-path="url(#a)"><g stroke-linecap="square"><path d="M8 16a14.551 14.551 0 01-6.222-1.372A6.31 6.31 0 011 11.6a6.3 6.3 0 011.229-3.736 6.935 6.935 0 013.158-2.388A3.006 3.006 0 008 7a3.008 3.008 0 002.613-1.525 6.933 6.933 0 013.158 2.388A6.3 6.3 0 0115 11.6a6.22 6.22 0 01-.779 3.028A14.54 14.54 0 018 16z"/><path d="M8 15c1.924 0 3.77-.383 5.49-1.138.339-.711.51-1.47.51-2.262a5.31 5.31 0 00-1.037-3.147 5.87 5.87 0 00-2.026-1.738A4.01 4.01 0 018 8a4.009 4.009 0 01-2.937-1.284 5.873 5.873 0 00-2.026 1.737A5.31 5.31 0 002 11.6c0 .78.176 1.555.51 2.262A13.573 13.573 0 008 15m0 1c-2.185 0-4.279-.461-6.221-1.372A6.31 6.31 0 011 11.6c0-1.343.425-2.635 1.23-3.736a6.935 6.935 0 013.157-2.389A3.006 3.006 0 008 7c1.08 0 2.08-.584 2.613-1.525a6.933 6.933 0 013.158 2.388A6.304 6.304 0 0115 11.6a6.22 6.22 0 01-.78 3.028A14.54 14.54 0 018 16z" fill="#221c35"/></g><g transform="translate(4)" stroke="#221c35"><circle cx="4" cy="4" r="4" stroke="none"/><circle cx="4" cy="4" r="3.5"/></g></g></svg>