<svg xmlns="http://www.w3.org/2000/svg" width="16" height="16"><defs><clipPath id="a"><path d="M0 0h16v16H0z"/></clipPath></defs><g fill="none" clip-path="url(#a)"><g transform="translate(4 3)" stroke="#221c35"><path stroke="none" d="M0 0h6v1H0z"/><rect x=".5" y=".5" width="5"/></g><g transform="translate(4 5)" stroke="#221c35"><path stroke="none" d="M0 0h6v1H0z"/><rect x=".5" y=".5" width="5"/></g><g transform="translate(4 7)" stroke="#221c35"><path stroke="none" d="M0 0h6v1H0z"/><rect x=".5" y=".5" width="5"/></g><g transform="translate(4 9)" stroke="#221c35"><path stroke="none" d="M0 0h4v1H0z"/><rect x=".5" y=".5" width="3"/></g><path d="M2 0h9l3 2.972V16H2z"/><path d="M3 1v14h10V3.389L10.589 1H3M2 0h9l3 2.972V16H2V0z" fill="#221c35"/></g></svg>