<svg xmlns="http://www.w3.org/2000/svg" width="16" height="16"><defs><clipPath id="a"><path d="M0 0h16v16H0z"/></clipPath></defs><g clip-path="url(#a)"><g fill="none" stroke="#221c35"><circle cx="8" cy="8" r="8" stroke="none"/><circle cx="8" cy="8" r="7.5"/></g><path d="M7.064 10.037a4.117 4.117 0 01.233-1.527 3.122 3.122 0 01.851-1.118 4.342 4.342 0 00.823-.9 1.409 1.409 0 00.206-.73q0-1.156-1.067-1.157a1.08 1.08 0 00-.81.312 1.225 1.225 0 00-.318.86H5a2.635 2.635 0 01.844-2.046 3.9 3.9 0 014.515-.038 2.5 2.5 0 01.8 1.981 2.4 2.4 0 01-.26 1.1 4.514 4.514 0 01-.909 1.147l-.554.526a1.882 1.882 0 00-.594 1.171l-.028.417zm-.2 2.1a.991.991 0 01.311-.753 1.217 1.217 0 011.593 0 1.062 1.062 0 01.007 1.5 1.248 1.248 0 01-1.607 0 .991.991 0 01-.302-.747z" fill="#171528"/></g></svg>