<svg xmlns="http://www.w3.org/2000/svg" xmlns:xlink="http://www.w3.org/1999/xlink" width="16" height="16" viewBox="0 0 16 16"><defs><clipPath id="b"><rect width="16" height="16"/></clipPath></defs><g id="a" clip-path="url(#b)"><g transform="translate(16 8) rotate(180)"><path d="M2.5,0,5,3H0Z" fill="#161615"/></g><g transform="translate(-372 -139)"><path d="M2,9V4H0L2.5,1,5,4H3V9Z" transform="translate(371 147) rotate(-90)" fill="#161615"/><g transform="translate(382 151) rotate(180)"><path d="M304.922,246.429l2.5-3h-5Z" transform="translate(-302.422 -243.429)" fill="#161615"/></g><path d="M-670-177v-7h1v7Zm1-6v-1h4v1Z" transform="translate(202 809) rotate(90)" fill="#161615"/><path d="M0,9V2H1V9ZM1,3V2H4V3Z" transform="translate(377 155) rotate(-90)" fill="#161615"/></g></g></svg>