<svg xmlns="http://www.w3.org/2000/svg" xmlns:xlink="http://www.w3.org/1999/xlink" width="16" height="16" viewBox="0 0 16 16"><defs><clipPath id="b"><rect width="16" height="16"/></clipPath></defs><g id="a" clip-path="url(#b)"><g transform="translate(670 186)" fill="none"><path d="M-664.829-172H-668.5a1.5,1.5,0,0,1-1.5-1.5,1.5,1.5,0,0,1,1.5-1.5h.5v-3a6,6,0,0,1,4.027-5.667A2.016,2.016,0,0,1-664-184a2,2,0,0,1,2-2,2,2,0,0,1,2,2,2.022,2.022,0,0,1-.028.332A6,6,0,0,1-656-178v3h.5a1.5,1.5,0,0,1,1.5,1.5,1.5,1.5,0,0,1-1.5,1.5h-3.671A3.006,3.006,0,0,1-662-170,3.005,3.005,0,0,1-664.829-172Z" stroke="none"/><path d="M -662.0004272460938 -170.9992065429688 C -661.15478515625 -170.9992065429688 -660.3965454101563 -171.5355834960938 -660.1136474609375 -172.3339080810547 L -659.877685546875 -172.9999084472656 L -659.1710815429688 -172.9999084472656 L -655.4996948242188 -172.9999084472656 C -655.2243041992188 -172.9999084472656 -655.0003051757813 -173.2243347167969 -655.0003051757813 -173.5001983642578 C -655.0003051757813 -173.7755737304688 -655.2243041992188 -173.9996032714844 -655.4996948242188 -173.9996032714844 L -656.0001220703125 -173.9996032714844 L -657.0001220703125 -173.9996032714844 L -657.0001220703125 -174.9996032714844 L -657.0001220703125 -178.0001983642578 C -657.0001220703125 -180.1261596679688 -658.3489379882813 -182.0241394042969 -660.3563842773438 -182.7231140136719 L -661.1522216796875 -183.0001983642578 L -661.0140380859375 -183.8314819335938 C -661.00439453125 -183.8896331787109 -660.9996948242188 -183.9446258544922 -660.9996948242188 -183.9996032714844 C -660.9996948242188 -184.5513916015625 -661.4486083984375 -185.0003051757813 -662.0004272460938 -185.0003051757813 C -662.5517578125 -185.0003051757813 -663.000244140625 -184.5513916015625 -663.000244140625 -183.9996032714844 C -663.000244140625 -183.9417724609375 -662.9957275390625 -183.8853454589844 -662.98681640625 -183.8319091796875 L -662.84814453125 -183.0000305175781 L -663.6447143554688 -182.7229919433594 C -665.6514892578125 -182.0250549316406 -666.9998168945313 -180.1271057128906 -666.9998168945313 -178.0001983642578 L -666.9998168945313 -174.9996032714844 L -666.9998168945313 -173.9996032714844 L -667.9998168945313 -173.9996032714844 L -668.500244140625 -173.9996032714844 C -668.7755737304688 -173.9996032714844 -668.9996337890625 -173.7755737304688 -668.9996337890625 -173.5001983642578 C -668.9996337890625 -173.2243347167969 -668.7755737304688 -172.9999084472656 -668.500244140625 -172.9999084472656 L -664.828857421875 -172.9999084472656 L -664.1223754882813 -172.9999084472656 L -663.8862915039063 -172.333984375 C -663.6033325195313 -171.5356140136719 -662.845458984375 -170.9992065429688 -662.0004272460938 -170.9992065429688 M -662.0004272460938 -169.9992065429688 C -663.30419921875 -169.9992065429688 -664.4161987304688 -170.8356781005859 -664.828857421875 -171.9999084472656 L -668.500244140625 -171.9999084472656 C -669.3281860351563 -171.9999084472656 -669.9996337890625 -172.6713104248047 -669.9996337890625 -173.5001983642578 C -669.9996337890625 -174.3282012939453 -669.3281860351563 -174.9996032714844 -668.500244140625 -174.9996032714844 L -667.9998168945313 -174.9996032714844 L -667.9998168945313 -178.0001983642578 C -667.9998168945313 -180.622802734375 -666.3176879882813 -182.8521118164063 -663.9732055664063 -183.6675109863281 C -663.9912109375 -183.7754974365234 -664.000244140625 -183.8861999511719 -664.000244140625 -183.9996032714844 C -664.000244140625 -185.1047973632813 -663.104736328125 -186.0003051757813 -662.0004272460938 -186.0003051757813 C -660.8952026367188 -186.0003051757813 -659.9996948242188 -185.1047973632813 -659.9996948242188 -183.9996032714844 C -659.9996948242188 -183.8861999511719 -660.0096435546875 -183.7754974365234 -660.027587890625 -183.6675109863281 C -657.68310546875 -182.8512115478516 -656.0001220703125 -180.622802734375 -656.0001220703125 -178.0001983642578 L -656.0001220703125 -174.9996032714844 L -655.4996948242188 -174.9996032714844 C -654.6716918945313 -174.9996032714844 -654.0003051757813 -174.3282012939453 -654.0003051757813 -173.5001983642578 C -654.0003051757813 -172.6713104248047 -654.6716918945313 -171.9999084472656 -655.4996948242188 -171.9999084472656 L -659.1710815429688 -171.9999084472656 C -659.5838012695313 -170.8351898193359 -660.6964721679688 -169.9992065429688 -662.0004272460938 -169.9992065429688 Z" stroke="none" fill="#221c35"/></g></g></svg>