<svg xmlns="http://www.w3.org/2000/svg" xmlns:xlink="http://www.w3.org/1999/xlink" width="16" height="16" viewBox="0 0 16 16"><defs><clipPath id="b"><rect width="16" height="16"/></clipPath></defs><g id="a" clip-path="url(#b)"><g transform="translate(1)"><g transform="translate(2 2)" fill="none" stroke="#221c35" stroke-width="1"><rect width="10" height="14" stroke="none"/><rect x="0.5" y="0.5" width="9" height="13" fill="none"/></g><g transform="translate(0 0)" fill="none"><path d="M11,3H0V2H3V0h8V2h3V3Z" stroke="none"/><path d="M 9.999800682067871 1.999730587005615 L 9.999800682067871 1.000030517578125 L 3.999700307846069 1.000030517578125 L 3.999700307846069 1.999730587005615 L 9.999800682067871 1.999730587005615 M 14.00040054321289 2.999730587005615 L 10.99980068206787 2.999730587005615 L 2.999700307846069 2.999730587005615 L 2.716064386731887e-07 2.999730587005615 L 2.716064386731887e-07 1.999830603599548 L 2.999700307846069 1.999830603599548 L 2.999700307846069 3.055229171877727e-05 L 10.99980068206787 3.055229171877727e-05 L 10.99980068206787 1.999830603599548 L 14.00040054321289 1.999830603599548 L 14.00040054321289 2.999730587005615 Z" stroke="none" fill="#221c35"/></g><g transform="translate(4.5 4.831)" fill="#fff"><path d="M3.5,7.168v-7h1v7Zm-3,0v-7h1v7Z" stroke="none"/><path d="M 4.5 7.168499946594238 L 3.500100135803223 7.168499946594238 L 3.500100135803223 0.1683000475168228 L 4.5 0.1683000475168228 L 4.5 7.168499946594238 Z M 1.500300049781799 7.168499946594238 L 0.5004000067710876 7.168499946594238 L 0.5004000067710876 0.1683000475168228 L 1.500300049781799 0.1683000475168228 L 1.500300049781799 7.168499946594238 Z" stroke="none" fill="#221c35"/></g></g></g></svg>