<svg xmlns="http://www.w3.org/2000/svg" xmlns:xlink="http://www.w3.org/1999/xlink" width="16" height="16" viewBox="0 0 16 16"><defs><clipPath id="b"><rect width="16" height="16"/></clipPath></defs><g id="a" clip-path="url(#b)"><path d="M-3.082-3.395h.621a.646.646,0,0,0,.738-.723A.625.625,0,0,0-1.9-4.576a.667.667,0,0,0-.5-.178A.714.714,0,0,0-2.85-4.6a.465.465,0,0,0-.193.379H-4.359a1.348,1.348,0,0,1,.25-.8,1.651,1.651,0,0,1,.693-.549,2.371,2.371,0,0,1,.975-.2,2.329,2.329,0,0,1,1.492.434A1.441,1.441,0,0,1-.406-4.145a1.2,1.2,0,0,1-.225.693,1.6,1.6,0,0,1-.654.529,1.529,1.529,0,0,1,.711.5A1.312,1.312,0,0,1-.316-1.6,1.468,1.468,0,0,1-.9-.379,2.432,2.432,0,0,1-2.441.078,2.522,2.522,0,0,1-3.479-.135,1.625,1.625,0,0,1-4.2-.725a1.533,1.533,0,0,1-.246-.857h1.324a.593.593,0,0,0,.211.453.745.745,0,0,0,.52.191.78.78,0,0,0,.555-.193.646.646,0,0,0,.207-.494.756.756,0,0,0-.215-.609.9.9,0,0,0-.594-.18h-.641ZM3.266,0H1.945V-4.2l-1.3.379v-1l2.5-.863h.121Z" transform="translate(7.999 13.5)" fill="#221c35"/><path d="M-654-172h-16v-14h2v2h4v-2h4v2h4v-2l2,0v14Zm-15-10v9h14v-9Z" transform="translate(670 187.999)" fill="#221c35"/><rect width="2" height="3" transform="translate(2.999)" fill="#221c35"/><rect width="2" height="3" transform="translate(10.999)" fill="#221c35"/></g></svg>