<svg xmlns="http://www.w3.org/2000/svg" xmlns:xlink="http://www.w3.org/1999/xlink" width="16" height="16" viewBox="0 0 16 16"><defs><clipPath id="b"><rect width="16" height="16"/></clipPath></defs><g id="a" clip-path="url(#b)"><g fill="none"><path d="M0,0H16V12H8L5.5,16,3,12H0Z" stroke="none"/><path d="M 1 1 L 1 11 L 3 11 L 3.55424976348877 11 L 3.847999572753906 11.46999931335449 L 5.5 14.11320018768311 L 7.152000427246094 11.46999931335449 L 7.44575023651123 11 L 8 11 L 15 11 L 15 1 L 1 1 M 0 0 L 16 0 L 16 12 L 8 12 L 5.5 16 L 3 12 L 0 12 L 0 0 Z" stroke="none" fill="#221c35"/></g><g transform="translate(3 3)" fill="none" stroke="#221c35" stroke-width="1"><rect width="10" height="1" stroke="none"/><rect x="0.5" y="0.5" width="9" fill="none"/></g><g transform="translate(3 5)" fill="none" stroke="#221c35" stroke-width="1"><rect width="8" height="1" stroke="none"/><rect x="0.5" y="0.5" width="7" fill="none"/></g><g transform="translate(3 7)" fill="none" stroke="#221c35" stroke-width="1"><rect width="6" height="1" stroke="none"/><rect x="0.5" y="0.5" width="5" fill="none"/></g></g></svg>