<svg xmlns="http://www.w3.org/2000/svg" xmlns:xlink="http://www.w3.org/1999/xlink" width="16" height="16" viewBox="0 0 16 16"><defs><clipPath id="b"><rect width="16" height="16"/></clipPath></defs><g id="a" clip-path="url(#b)"><g transform="translate(2 0)"><g transform="translate(1822 240)" fill="#fff"><path d="M-1820-224h-1v-7h1v7Zm0-10h-1v-6h1v6Z" stroke="none"/><path d="M -1819.999877929688 -224.0001068115234 L -1820.000854492188 -224.0001068115234 L -1820.999755859375 -224.0001068115234 L -1820.999755859375 -231.0003051757813 L -1819.999877929688 -231.0003051757813 L -1819.999877929688 -224.0010986328125 L -1819.999877929688 -224.0001068115234 Z M -1819.999877929688 -234.0000152587891 L -1820.000854492188 -234.0000152587891 L -1820.999755859375 -234.0000152587891 L -1820.999755859375 -240.0003051757813 L -1819.999877929688 -240.0003051757813 L -1819.999877929688 -234.0010070800781 L -1819.999877929688 -234.0000152587891 Z" stroke="none" fill="#221c35"/></g><g transform="translate(1827 240)" fill="#fff"><path d="M-1820-224h-1v-2h1v2Zm0-5h-1v-11h1v11Z" stroke="none"/><path d="M -1819.999877929688 -224.0000915527344 L -1820.000854492188 -224.0000915527344 L -1820.999755859375 -224.0000915527344 L -1820.999755859375 -225.9999084472656 L -1819.999877929688 -225.9999084472656 L -1819.999877929688 -224.0010986328125 L -1819.999877929688 -224.0000915527344 Z M -1819.999877929688 -228.9996185302734 L -1820.000854492188 -228.9996185302734 L -1820.999755859375 -228.9996185302734 L -1820.999755859375 -239.9994049072266 L -1819.999877929688 -239.9994201660156 L -1819.999877929688 -229.0006103515625 L -1819.999877929688 -228.9996185302734 Z" stroke="none" fill="#221c35"/></g><g transform="translate(1832 240)" fill="#fff"><path d="M-1820-224h-1v-11h1v11Zm0-14h-1v-2h1v2Z" stroke="none"/><path d="M -1819.999877929688 -224.0000915527344 L -1820.000854492188 -224.0000915527344 L -1820.999755859375 -224.0000915527344 L -1820.999755859375 -234.9999084472656 L -1819.999877929688 -234.9999084472656 L -1819.999877929688 -224.0010986328125 L -1819.999877929688 -224.0000915527344 Z M -1819.999877929688 -237.9996185302734 L -1820.000854492188 -237.9996185302734 L -1820.999755859375 -237.9996185302734 L -1820.999755859375 -239.9994049072266 L -1819.999877929688 -239.9994201660156 L -1819.999877929688 -238.0006103515625 L -1819.999877929688 -237.9996185302734 Z" stroke="none" fill="#221c35"/></g><g transform="translate(5 11)" fill="none" stroke="#221c35" stroke-width="1"><rect width="3" height="3" stroke="none"/><rect x="0.5" y="0.5" width="2" height="2" fill="none"/></g><g transform="translate(10 2)" fill="none" stroke="#221c35" stroke-width="1"><rect width="3" height="3" stroke="none"/><rect x="0.5" y="0.5" width="2" height="2" fill="none"/></g><g transform="translate(0 6)" fill="none" stroke="#221c35" stroke-width="1"><rect width="3" height="3" stroke="none"/><rect x="0.5" y="0.5" width="2" height="2" fill="none"/></g></g></g></svg>