<svg xmlns="http://www.w3.org/2000/svg" xmlns:xlink="http://www.w3.org/1999/xlink" width="16" height="16" viewBox="0 0 16 16"><defs><clipPath id="b"><rect width="16" height="16"/></clipPath></defs><g id="a" clip-path="url(#b)"><g transform="translate(0 4)"><g transform="translate(-479 -314)"><path d="M-286.075-3.484h-10v-8h10v8Zm-9-7h0v6h8v-6h-8Z" transform="translate(781.075 325.484)" fill="#221c35" stroke="rgba(0,0,0,0)" stroke-miterlimit="10" stroke-width="1"/><g transform="translate(0 -0.5)"><rect width="5" height="1" transform="translate(479 315.5)" fill="#221c35"/><rect width="4" height="1" transform="translate(480 317.5)" fill="#221c35"/><rect width="3" height="1" transform="translate(481 319.5)" fill="#221c35"/></g><path d="M226.233,296.194l-.526-.71-2.474,2.14-2.474-2.14-.526.71,1.492,1.289-1.492,1.29.526.71,1.64-1.418.835.721.834-.721,1.64,1.418.526-.71-1.492-1.29Z" transform="translate(266.767 20.516)" fill="#221c35"/></g></g></g></svg>