<svg xmlns="http://www.w3.org/2000/svg" xmlns:xlink="http://www.w3.org/1999/xlink" width="16" height="16" viewBox="0 0 16 16"><defs><clipPath id="b"><rect width="16" height="16"/></clipPath></defs><g id="a" clip-path="url(#b)"><path d="M169.625,270.848h-.908a9.7,9.7,0,0,0-1.155-2.2q-.8-1.172-1.469-1.262c-.247-.031-.554-.056-.917-.079s-.677-.035-.94-.035h-.546v12.55a1.591,1.591,0,0,0,.152.715,1.068,1.068,0,0,0,.593.491,5.311,5.311,0,0,0,.832.207c.376.072.7.124.959.154v.88h-9.2v-.88c.225-.021.542-.056.948-.1a3.527,3.527,0,0,0,.832-.15,1.077,1.077,0,0,0,.605-.485,1.609,1.609,0,0,0,.152-.723V267.273h-.546q-.395,0-.94.035c-.365.023-.67.048-.918.079q-.672.09-1.469,1.262a9.751,9.751,0,0,0-1.155,2.2h-.907V266.27h16Z" transform="translate(-153.625 -266.27)" fill="#221c35"/></g></svg>