<svg xmlns="http://www.w3.org/2000/svg" xmlns:xlink="http://www.w3.org/1999/xlink" width="16" height="16" viewBox="0 0 16 16"><defs><clipPath id="b"><rect width="16" height="16"/></clipPath></defs><g id="a" clip-path="url(#b)"><g transform="translate(-1 -1)"><g transform="matrix(0.819, -0.574, 0.574, 0.819, -632.655, -897.216)" fill="none"><path d="M5,1119v-5.022a5.5,5.5,0,1,1,1,0V1119Z" stroke="none"/><path d="M 5.50087308883667 1113.018798828125 L 5.910430431365967 1112.981811523438 C 7.023480415344238 1112.88134765625 8.054920196533203 1112.37060546875 8.814740180969238 1111.54345703125 C 9.578940391540527 1110.711669921875 9.999800682067871 1109.630859375 9.999800682067871 1108.500366210938 C 9.999800682067871 1106.01904296875 7.981150150299072 1104.000366210938 5.499900341033936 1104.000366210938 C 3.01865029335022 1104.000366210938 1.000000357627869 1106.01904296875 1.000000357627869 1108.500366210938 C 1.000000357627869 1109.631103515625 1.420940399169922 1110.7119140625 2.18526029586792 1111.543823242188 C 2.945220232009888 1112.370971679688 3.976830244064331 1112.881591796875 5.09004020690918 1112.981811523438 L 5.50087308883667 1113.018798828125 M 6.000300407409668 1118.999755859375 L 5.000400543212891 1118.999755859375 L 5.000400543212891 1113.977783203125 C 2.196920394897461 1113.725463867188 3.410339388665307e-07 1111.369506835938 3.410339388665307e-07 1108.500366210938 C 3.410339388665307e-07 1105.462768554688 2.462400436401367 1103.000366210938 5.499900341033936 1103.000366210938 C 8.537400245666504 1103.000366210938 10.99980068206787 1105.462768554688 10.99980068206787 1108.500366210938 C 10.99980068206787 1111.369140625 8.803260803222656 1113.724853515625 6.000300407409668 1113.977783203125 L 6.000300407409668 1118.999755859375 Z" stroke="none" fill="#221c35"/></g></g></g></svg>