<svg xmlns="http://www.w3.org/2000/svg" xmlns:xlink="http://www.w3.org/1999/xlink" width="16" height="16" viewBox="0 0 16 16"><defs><clipPath id="b"><rect width="16" height="16"/></clipPath></defs><g id="a" clip-path="url(#b)"><g transform="translate(83)"><g transform="translate(-82)"><g transform="translate(-75 -51)"><g transform="translate(745 238)" fill="none" stroke-linecap="square"><path d="M-663-171a14.551,14.551,0,0,1-6.222-1.372A6.31,6.31,0,0,1-670-175.4a6.3,6.3,0,0,1,1.229-3.736,6.935,6.935,0,0,1,3.158-2.388A3.006,3.006,0,0,0-663-180a3.008,3.008,0,0,0,2.613-1.525,6.933,6.933,0,0,1,3.158,2.388A6.3,6.3,0,0,1-656-175.4a6.22,6.22,0,0,1-.779,3.028A14.54,14.54,0,0,1-663-171Z" stroke="none"/><path d="M -662.9993896484375 -172.0000152587891 C -661.075927734375 -172.0000152587891 -659.2308959960938 -172.3827667236328 -657.5098876953125 -173.1382598876953 C -657.1714477539063 -173.8492584228516 -657.0001220703125 -174.6086273193359 -657.0001220703125 -175.4001007080078 C -657.0001220703125 -176.5294952392578 -657.358642578125 -177.6177825927734 -658.0369873046875 -178.5473480224609 C -658.5648193359375 -179.2707977294922 -659.2565307617188 -179.8623504638672 -660.0629272460938 -180.2848358154297 C -660.8116455078125 -179.4768371582031 -661.8739624023438 -179.0000152587891 -663.0003051757813 -179.0000152587891 C -664.1262817382813 -179.0000152587891 -665.1882934570313 -179.4767150878906 -665.9368286132813 -180.2844848632813 C -666.7431640625 -179.8619995117188 -667.4349365234375 -179.2704010009766 -667.9628295898438 -178.5469970703125 C -668.64111328125 -177.6175231933594 -668.9996337890625 -176.5293426513672 -668.9996337890625 -175.4001007080078 C -668.9996337890625 -174.6204528808594 -668.82421875 -173.8447570800781 -668.4900512695313 -173.1379852294922 C -666.768310546875 -172.3826446533203 -664.9229736328125 -172.0000152587891 -662.9993896484375 -172.0000152587891 M -662.9993896484375 -171.0000152587891 C -665.1854248046875 -171.0000152587891 -667.2787475585938 -171.4614868164063 -669.2211303710938 -172.3715972900391 C -669.7305908203125 -173.2993774414063 -669.9996337890625 -174.3464660644531 -669.9996337890625 -175.4001007080078 C -669.9996337890625 -176.74267578125 -669.5746459960938 -178.0346832275391 -668.7706298828125 -179.136474609375 C -667.9852905273438 -180.2126770019531 -666.8933715820313 -181.0384521484375 -665.6128540039063 -181.5245361328125 C -665.0806884765625 -180.5839996337891 -664.080078125 -180.0000152587891 -663.0003051757813 -180.0000152587891 C -661.9205322265625 -180.0000152587891 -660.9191284179688 -180.5842895507813 -660.3869018554688 -181.5248413085938 C -659.1056518554688 -181.0385437011719 -658.0140991210938 -180.2126007080078 -657.2291259765625 -179.1367645263672 C -656.4251098632813 -178.0349273681641 -656.0001220703125 -176.7428131103516 -656.0001220703125 -175.4001007080078 C -656.0001220703125 -174.3316192626953 -656.2623291015625 -173.3126831054688 -656.779541015625 -172.3716125488281 C -658.7213134765625 -171.4613342285156 -660.8138427734375 -171.0000152587891 -662.9993896484375 -171.0000152587891 Z" stroke="none" fill="#221c35"/></g><g transform="translate(78 51)" fill="none" stroke="#221c35" stroke-width="1"><circle cx="4" cy="4" r="4" stroke="none"/><circle cx="4" cy="4" r="3.5" fill="none"/></g></g></g></g></g></svg>