<svg xmlns="http://www.w3.org/2000/svg" xmlns:xlink="http://www.w3.org/1999/xlink" width="16" height="16" viewBox="0 0 16 16"><defs><clipPath id="b"><rect width="16" height="16"/></clipPath></defs><g id="a" clip-path="url(#b)"><g transform="translate(55)"><g transform="translate(-55 1)"><g transform="translate(0 -0.038)" fill="none"><path d="M8,10.038H6v4H2v-4H0v-6H8l8-4v14Z" stroke="none"/><path d="M 4.999753475189209 13.03817939758301 L 4.999753475189209 10.03768920898438 L 4.999753475189209 9.037689208984375 L 5.999753475189209 9.037689208984375 L 7.999573230743408 9.037689208984375 L 8.235663414001465 9.037689208984375 L 8.446823120117188 9.143279075622559 L 14.99969291687012 12.42006587982178 L 14.99969291687012 1.655895590782166 L 8.446823120117188 4.932699203491211 L 8.235663414001465 5.038289070129395 L 7.999573230743408 5.038289070129395 L 0.9995132684707642 5.038289070129395 L 0.9995132684707642 9.037689208984375 L 2.000183343887329 9.037689208984375 L 3.000183343887329 9.037689208984375 L 3.000183343887329 10.03768920898438 L 3.000183343887329 13.03817939758301 L 4.999753475189209 13.03817939758301 M 15.99969291687012 14.03817939758301 L 7.999573230743408 10.03768920898438 L 5.999753475189209 10.03768920898438 L 5.999753475189209 14.03817939758301 L 2.000183343887329 14.03817939758301 L 2.000183343887329 10.03768920898438 L -0.0004867285024374723 10.03768920898438 L -0.0004867285024374723 4.038289070129395 L 7.999573230743408 4.038289070129395 L 15.99969291687012 0.03777912631630898 L 15.99969291687012 14.03817939758301 Z" stroke="none" fill="#221c35"/></g></g></g></g></svg>