<svg xmlns="http://www.w3.org/2000/svg" xmlns:xlink="http://www.w3.org/1999/xlink" width="16" height="16" viewBox="0 0 16 16"><defs><clipPath id="b"><rect width="16" height="16"/></clipPath></defs><g id="a" clip-path="url(#b)"><g transform="translate(2)"><g transform="translate(2 3)" fill="none" stroke="#221c35" stroke-width="1"><rect width="6" height="1" stroke="none"/><rect x="0.5" y="0.5" width="5" fill="none"/></g><g transform="translate(2 5)" fill="none" stroke="#221c35" stroke-width="1"><rect width="6" height="1" stroke="none"/><rect x="0.5" y="0.5" width="5" fill="none"/></g><g transform="translate(2 7)" fill="none" stroke="#221c35" stroke-width="1"><rect width="6" height="1" stroke="none"/><rect x="0.5" y="0.5" width="5" fill="none"/></g><g transform="translate(2 9)" fill="none" stroke="#221c35" stroke-width="1"><rect width="4" height="1" stroke="none"/><rect x="0.5" y="0.5" width="3" fill="none"/></g><g fill="none"><path d="M0,0H9l3,2.972V16H0Z" stroke="none"/><path d="M 1 1 L 1 15 L 11 15 L 11 3.388568878173828 L 8.588571548461914 1 L 1 1 M 0 0 L 9 0 L 12 2.971559524536133 L 12 16 L 0 16 L 0 0 Z" stroke="none" fill="#221c35"/></g></g></g></svg>