<svg xmlns="http://www.w3.org/2000/svg" xmlns:xlink="http://www.w3.org/1999/xlink" width="16" height="16" viewBox="0 0 16 16"><defs><clipPath id="b"><rect width="16" height="16"/></clipPath></defs><g id="a" clip-path="url(#b)"><g fill="none" stroke="#221c35" stroke-width="1"><circle cx="8" cy="8" r="8" stroke="none"/><circle cx="8" cy="8" r="7.5" fill="none"/></g><g transform="translate(-263.385 -204.363)" style="isolation:isolate"><g style="isolation:isolate"><path d="M270.449,214.4a4.117,4.117,0,0,1,.233-1.527,3.122,3.122,0,0,1,.851-1.118,4.342,4.342,0,0,0,.823-.9,1.409,1.409,0,0,0,.206-.73q0-1.156-1.067-1.157a1.08,1.08,0,0,0-.81.312,1.225,1.225,0,0,0-.318.86h-1.982a2.635,2.635,0,0,1,.844-2.046,3.9,3.9,0,0,1,4.515-.038,2.5,2.5,0,0,1,.8,1.981,2.4,2.4,0,0,1-.26,1.1,4.514,4.514,0,0,1-.909,1.147l-.554.526a1.882,1.882,0,0,0-.594,1.171l-.028.417Zm-.2,2.1a.991.991,0,0,1,.311-.753,1.217,1.217,0,0,1,1.593,0,1.062,1.062,0,0,1,.007,1.5,1.248,1.248,0,0,1-1.607,0A.991.991,0,0,1,270.251,216.5Z" fill="#171528"/></g></g></g></svg>