<svg xmlns="http://www.w3.org/2000/svg" xmlns:xlink="http://www.w3.org/1999/xlink" width="16" height="16" viewBox="0 0 16 16"><defs><clipPath id="b"><rect width="16" height="16"/></clipPath></defs><g id="a" clip-path="url(#b)"><path d="M2,0H8a2,2,0,0,1,2,2V14a2,2,0,0,1-2,2H2a2,2,0,0,1-2-2V2A2,2,0,0,1,2,0Z" fill="none"/><rect width="10" height="1" transform="translate(4 5)" fill="none"/><rect width="8" height="1" transform="translate(4 7)" fill="none"/><path d="M3,4V9h8l1.5,3L14,9h2V4Zm8.5,4h-7V7h7Zm2-2h-9V5h9Z" fill="#221c35"/><path d="M9,10v4a1,1,0,0,1-1,1H2a1,1,0,0,1-1-1V2A1,1,0,0,1,2,1H8A1,1,0,0,1,9,2V3h1V2A2,2,0,0,0,8,0H2A2,2,0,0,0,0,2V14a2,2,0,0,0,2,2H8a2,2,0,0,0,2-2V10Z" fill="#221c35"/></g></svg>